<?xml version="1.0" encoding="utf-8"?>
<!-- Generator: Adobe Illustrator 25.2.0, SVG Export Plug-In . SVG Version: 6.00 Build 0)  -->
<svg version="1.1" id="Layer_1" xmlns="http://www.w3.org/2000/svg" xmlns:xlink="http://www.w3.org/1999/xlink" x="0px" y="0px"
	 viewBox="0 0 400 400" style="enable-background:new 0 0 400 400;" xml:space="preserve">
<style type="text/css">
	.st0{fill:#31BAA1;}
</style>
<g>
	<path class="st0" d="M221.6,316.1c9.5-23.3,36.3-56,63.6-72.9l60.5,100.1l-62,45L221.6,316.1L221.6,316.1z"/>
	<path class="st0" d="M132.2,388.2l-85.3-54.9C111.5,212.7,232.2,126.7,374,110.7l23.8,73.2C280.9,206.9,183.3,284.1,132.2,388.2z"
		/>
	<path class="st0" d="M150.8,139.8l10.8-128.2h76.6l9.7,115.9c-44,15.1-69.8,27.1-99.4,45.3C126.7,186.3,106.8,202,89,220L2.2,183.3
		l23.7-73L150.8,139.8z"/>
</g>
</svg>
